<svg width="501" height="403" viewBox="0 0 501 403" fill="none" xmlns="http://www.w3.org/2000/svg">
<path d="M11.8343 255.456C11.8343 255.456 13.0883 254.698 14.0423 252.888C14.9959 251.086 15.7613 250.303 17.046 249.539C17.7284 249.129 19.9587 247.175 18.9676 244.376C18.0963 241.552 15.0493 241.434 14.2515 241.46C12.9465 241.488 11.7689 241.378 9.92945 240.504C8.08929 239.624 6.62372 239.764 6.62372 239.764C3.54993 240.293 3.21741 243.35 3.95003 245.007C4.03172 245.188 4.24485 245.639 4.38231 245.792C5.09345 246.607 5.77866 247.641 6.12499 248.645C6.50351 249.731 6.50819 250.797 6.43019 251.972C6.41455 252.186 6.42609 252.395 6.47969 252.582C7.05596 255.007 9.05942 256.877 11.8343 255.456Z" fill="#FEE266"/>
<path d="M26.3083 250.517C23.6325 251.078 21.1317 249.905 20.7168 247.909C20.3044 245.914 22.1426 243.842 24.8191 243.286C27.4918 242.741 29.9936 243.912 30.4051 245.909C30.8175 247.905 28.9802 249.974 26.3083 250.517Z" fill="#FEE266"/>
<path d="M19.1971 256.731C16.9542 256.748 15.1269 255.406 15.123 253.717C15.1126 252.046 16.9238 250.684 19.1727 250.666C21.4144 250.66 23.2374 252.006 23.2422 253.692C23.2492 255.365 21.4405 256.728 19.1971 256.731Z" fill="#FEE266"/>
<path d="M11.7065 234.375C9.90859 235.716 9.26135 237.9 10.2671 239.24C11.2738 240.576 13.5416 240.577 15.3379 239.232C17.1359 237.891 17.7735 235.717 16.7773 234.367C15.7706 233.031 13.5004 233.029 11.7065 234.375Z" fill="#FEE266"/>
<path d="M21.2537 235.368C18.7756 236.531 17.4797 238.956 18.3364 240.818C19.203 242.661 21.9091 243.212 24.3863 242.052C26.8514 240.901 28.1588 238.461 27.2931 236.615C26.43 234.77 23.7238 234.219 21.2537 235.368Z" fill="#FEE266"/>
<path d="M51.2263 267.541C51.2263 267.541 52.4256 266.691 53.2484 264.828C54.0722 262.961 54.7843 262.121 56.0179 261.256C56.6662 260.799 58.7558 258.686 57.5649 255.981C56.4965 253.222 53.4465 253.321 52.6521 253.4C51.3562 253.519 50.1737 253.493 48.2763 252.746C46.3719 252.011 44.9279 252.247 44.9279 252.247C41.8949 252.998 41.7792 256.069 42.6286 257.664C42.7194 257.851 42.9687 258.281 43.1116 258.419L43.1167 258.421C43.8781 259.192 44.6345 260.164 45.0526 261.142C45.5074 262.191 45.5909 263.252 45.5936 264.44C45.5961 264.642 45.6201 264.856 45.6828 265.05C46.4339 267.425 48.5612 269.136 51.2263 267.541Z" fill="#FEE266"/>
<path d="M65.3199 261.591C62.6932 262.321 60.1161 261.325 59.5667 259.362C59.0101 257.41 60.6964 255.217 63.3271 254.469C65.9547 253.736 68.5309 254.735 69.0794 256.7C69.6323 258.662 67.9506 260.842 65.3199 261.591Z" fill="#FEE266"/>
<path d="M58.6694 268.278C56.4286 268.453 54.5159 267.228 54.3895 265.562C54.2616 263.893 55.9805 262.395 58.2133 262.235C60.4516 262.06 62.3644 263.284 62.4923 264.953C62.6187 266.619 60.9068 268.106 58.6694 268.278Z" fill="#FEE266"/>
<path d="M49.6123 246.515C47.9154 247.984 47.4288 250.196 48.5263 251.464C49.6204 252.733 51.8856 252.562 53.5832 251.098C55.2802 249.629 55.7643 247.416 54.6693 246.15C53.5761 244.878 51.313 245.036 49.6123 246.515Z" fill="#FEE266"/>
<path d="M59.2142 246.817C56.8265 248.153 55.6958 250.678 56.6895 252.454C57.6866 254.228 60.4233 254.602 62.8076 253.268C65.1898 251.948 66.3205 249.423 65.3289 247.634C64.3344 245.86 61.593 245.498 59.2142 246.817Z" fill="#FEE266"/>
<path d="M65.5817 227.795C65.5817 227.795 66.3791 226.56 66.4483 224.516C66.5147 222.48 66.8601 221.437 67.6774 220.186C68.1168 219.508 69.2619 216.781 67.1485 214.714C65.1235 212.546 62.3356 213.777 61.6289 214.152C60.4727 214.744 59.3632 215.163 57.3195 215.188C55.2839 215.198 54.0309 215.977 54.0309 215.977C51.5025 217.781 52.539 220.674 53.9173 221.851C54.0733 221.976 54.4612 222.292 54.6519 222.362L54.6569 222.364C55.6491 222.793 56.7148 223.426 57.467 224.168C58.2813 224.982 58.7535 225.929 59.1962 227.019C59.2012 227.021 59.2012 227.021 59.2012 227.021C59.278 227.223 59.3794 227.396 59.5134 227.551C61.0924 229.484 63.7111 230.274 65.5817 227.795Z" fill="#FEE266"/>
<path d="M76.4382 217.01C74.2746 218.681 71.5112 218.72 70.2683 217.112C69.0268 215.485 69.7719 212.824 71.9315 211.171C74.0969 209.495 76.8603 209.456 78.1023 211.066C79.3484 212.682 78.5997 215.352 76.4382 217.01Z" fill="#FEE266"/>
<path d="M72.7633 225.722C70.7554 226.704 68.5184 226.294 67.7838 224.789C67.0361 223.297 68.0691 221.271 70.085 220.275C72.0975 219.28 74.3299 219.703 75.0671 221.208C75.8122 222.699 74.7783 224.727 72.7633 225.722Z" fill="#FEE266"/>
<path d="M56.241 208.894C55.2112 210.895 55.5825 213.134 57.079 213.888C58.5675 214.655 60.606 213.667 61.6333 211.665C62.6575 209.678 62.2803 207.44 60.7918 206.672C59.3042 205.902 57.2664 206.896 56.241 208.894Z" fill="#FEE266"/>
<path d="M65.257 205.617C63.5417 207.734 63.4378 210.493 65.0183 211.779C66.6083 213.053 69.2858 212.379 70.9961 210.26C72.7194 208.129 72.8234 205.369 71.2324 204.097C69.6503 202.809 66.9754 203.484 65.257 205.617Z" fill="#FEE266"/>
<path d="M102.243 233.85C102.243 233.85 103.15 232.703 103.403 230.67C103.659 228.644 104.1 227.651 105.035 226.46C105.523 225.844 106.921 223.218 105.004 220.965C103.191 218.629 100.299 219.601 99.5635 219.9C98.3513 220.389 97.2121 220.694 95.179 220.535C93.1489 220.36 91.8278 221.014 91.8278 221.014C89.136 222.596 89.9099 225.569 91.1774 226.862C91.3194 227.002 91.6787 227.342 91.8583 227.442L91.8608 227.443C92.8106 227.964 93.8155 228.677 94.4954 229.493C95.2376 230.371 95.6136 231.371 95.9571 232.499C96.0198 232.693 96.1056 232.878 96.2186 233.058C97.6137 235.121 100.151 236.156 102.243 233.85Z" fill="#FEE266"/>
<path d="M114.037 224.134C111.731 225.588 108.979 225.373 107.883 223.659C106.795 221.929 107.781 219.356 110.091 217.884C112.394 216.429 115.147 216.645 116.235 218.373C117.333 220.09 116.345 222.667 114.037 224.134Z" fill="#FEE266"/>
<path d="M109.581 232.455C107.486 233.255 105.305 232.629 104.706 231.066C104.107 229.503 105.319 227.586 107.413 226.788C109.506 225.991 111.693 226.602 112.292 228.165C112.891 229.727 111.678 231.656 109.581 232.455Z" fill="#FEE266"/>
<path d="M94.6716 214.188C93.4668 216.077 93.6372 218.336 95.05 219.233C96.4619 220.132 98.5844 219.333 99.7891 217.445C100.995 215.553 100.829 213.281 99.4162 212.385C98.0052 211.483 95.8773 212.297 94.6716 214.188Z" fill="#FEE266"/>
<path d="M103.96 211.735C102.055 213.688 101.695 216.431 103.159 217.847C104.615 219.286 107.345 218.847 109.252 216.883C111.155 214.931 111.515 212.186 110.052 210.767C108.592 209.347 105.862 209.783 103.96 211.735Z" fill="#FEE266"/>
<path d="M105.859 194.296C105.859 194.296 107.118 193.531 108.071 191.732C109.023 189.927 109.792 189.142 111.082 188.371C111.766 187.956 113.993 186.01 113.006 183.215C112.132 180.393 109.088 180.273 108.289 180.295C106.986 180.324 105.81 180.209 103.967 179.34C102.127 178.457 100.661 178.6 100.661 178.6C97.5899 179.121 97.253 182.182 97.9769 183.848C98.0648 184.019 98.2814 184.469 98.4163 184.621C99.1231 185.44 99.8074 186.477 100.153 187.483C100.533 188.564 100.536 189.635 100.46 190.797C100.463 190.798 100.463 190.798 100.463 190.798C100.444 191.018 100.46 191.215 100.504 191.422C101.08 193.841 103.086 195.712 105.859 194.296Z" fill="#FEE266"/>
<path d="M120.34 189.358C117.659 189.918 115.16 188.74 114.758 186.734C114.343 184.744 116.179 182.685 118.855 182.124C121.526 181.584 124.025 182.762 124.439 184.752C124.847 186.76 123.012 188.816 120.34 189.358Z" fill="#FEE266"/>
<path d="M113.222 195.578C110.983 195.577 109.16 194.225 109.154 192.55C109.142 190.89 110.961 189.516 113.198 189.514C115.445 189.501 117.27 190.848 117.273 192.525C117.283 194.205 115.47 195.563 113.222 195.578Z" fill="#FEE266"/>
<path d="M105.744 173.221C103.944 174.567 103.303 176.734 104.303 178.083C105.31 179.417 107.579 179.423 109.373 178.083C111.169 176.741 111.82 174.555 110.812 173.221C109.809 171.875 107.541 171.866 105.744 173.221Z" fill="#FEE266"/>
<path d="M115.286 174.222C112.812 175.39 111.511 177.807 112.37 179.67C113.233 181.514 115.939 182.065 118.411 180.92C120.887 179.754 122.196 177.319 121.33 175.474C120.469 173.63 117.756 173.076 115.286 174.222Z" fill="#FEE266"/>
<path d="M139.734 217.103C139.734 217.103 141.121 216.618 142.423 215.038C143.725 213.473 144.633 212.867 146.057 212.376C146.806 212.11 149.389 210.652 148.991 207.718C148.719 204.775 145.76 204.037 144.977 203.889C143.689 203.662 142.56 203.302 140.935 202.077C139.316 200.835 137.857 200.67 137.857 200.67C134.743 200.555 133.79 203.481 134.157 205.258C134.203 205.451 134.326 205.929 134.424 206.104C134.429 206.106 134.429 206.106 134.424 206.121C134.945 207.066 135.408 208.209 135.548 209.256C135.69 210.407 135.48 211.443 135.162 212.584C135.11 212.772 135.076 212.988 135.079 213.197C135.149 215.684 136.729 217.916 139.734 217.103Z" fill="#FEE266"/>
<path d="M154.907 215.254C152.175 215.245 149.971 213.581 149.973 211.544C149.985 209.508 152.201 207.864 154.934 207.87C157.663 207.878 159.87 209.541 159.863 211.579C159.859 213.615 157.636 215.261 154.907 215.254Z" fill="#FEE266"/>
<path d="M146.674 219.873C144.474 219.43 142.966 217.731 143.309 216.081C143.64 214.449 145.696 213.482 147.895 213.926C150.093 214.382 151.598 216.081 151.267 217.715C150.925 219.36 148.869 220.328 146.674 219.873Z" fill="#FEE266"/>
<path d="M143.928 196.457C141.89 197.405 140.817 199.408 141.524 200.925C142.231 202.445 144.457 202.891 146.487 201.957C148.52 201.006 149.598 199.005 148.891 197.488C148.184 195.971 145.964 195.507 143.928 196.457Z" fill="#FEE266"/>
<path d="M153.073 199.374C150.414 200.004 148.641 202.117 149.107 204.106C149.571 206.098 152.11 207.185 154.763 206.568C157.424 205.932 159.197 203.82 158.728 201.846C158.262 199.86 155.727 198.754 153.073 199.374Z" fill="#FEE266"/>
<path d="M184.364 216.971C184.364 216.971 185.832 217.088 187.656 216.158C189.477 215.249 190.555 215.064 192.056 215.176C192.852 215.24 195.798 214.952 196.608 212.107C197.55 209.291 195.133 207.423 194.473 206.987C193.394 206.242 192.501 205.473 191.512 203.693C190.524 201.909 189.245 201.175 189.245 201.175C186.443 199.815 184.401 202.102 184.028 203.878C183.985 204.073 183.902 204.571 183.921 204.769C183.921 204.769 183.921 204.769 183.923 204.77C184.018 205.854 183.978 207.089 183.683 208.102C183.358 209.215 182.744 210.074 181.998 210.999L181.995 210.998C181.866 211.158 181.757 211.329 181.683 211.509C180.74 213.832 181.287 216.509 184.364 216.971Z" fill="#FEE266"/>
<path d="M199.017 221.354C196.515 220.263 195.166 217.842 195.996 215.98C196.815 214.127 199.512 213.508 202.004 214.612C204.501 215.718 205.856 218.124 205.029 219.992C204.205 221.859 201.512 222.465 199.017 221.354Z" fill="#FEE266"/>
<path d="M189.616 222.292C187.788 220.99 187.088 218.835 188.05 217.475C189.021 216.1 191.293 216.043 193.121 217.342C194.952 218.642 195.654 220.786 194.686 222.162C193.717 223.533 191.447 223.592 189.616 222.292Z" fill="#FEE266"/>
<path d="M196.511 199.753C194.27 199.796 192.483 201.193 192.517 202.878C192.555 204.543 194.407 205.856 196.646 205.812C198.89 205.759 200.682 204.358 200.638 202.692C200.606 201.01 198.756 199.7 196.511 199.753Z" fill="#FEE266"/>
<path d="M203.708 206.1C201.022 205.604 198.546 206.822 198.178 208.827C197.807 210.834 199.686 212.857 202.368 213.365C205.049 213.859 207.53 212.626 207.901 210.622C208.269 208.617 206.393 206.594 203.708 206.1Z" fill="#FEE266"/>
<path d="M240.57 237.975C240.57 237.975 242.033 238.091 243.855 237.18C245.681 236.253 246.758 236.07 248.263 236.18C249.056 236.244 252.004 235.956 252.813 233.114C253.749 230.298 251.337 228.432 250.675 227.993C249.6 227.249 248.704 226.479 247.713 224.696C246.723 222.916 245.45 222.182 245.45 222.182C242.646 220.82 240.601 223.107 240.229 224.883C240.185 225.094 240.102 225.576 240.126 225.776C240.222 226.864 240.18 228.095 239.886 229.108C239.562 230.216 238.949 231.081 238.202 232.002C238.066 232.163 237.958 232.331 237.877 232.529C236.939 234.84 237.489 237.515 240.57 237.975Z" fill="#FEE266"/>
<path d="M255.209 242.39C252.715 241.284 251.364 238.862 252.191 237C253.013 235.147 255.71 234.528 258.202 235.633C260.7 236.745 262.053 239.145 261.226 241.013C260.4 242.878 257.714 243.482 255.209 242.39Z" fill="#FEE266"/>
<path d="M245.821 243.296C243.989 241.998 243.288 239.834 244.254 238.481C245.225 237.107 247.491 237.05 249.323 238.348C251.154 239.648 251.853 241.808 250.885 243.166C249.917 244.536 247.646 244.597 245.821 243.296Z" fill="#FEE266"/>
<path d="M252.716 220.759C250.472 220.802 248.682 222.2 248.719 223.884C248.76 225.549 250.602 226.873 252.847 226.82C255.095 226.765 256.876 225.378 256.843 223.698C256.808 222.015 254.956 220.704 252.716 220.759Z" fill="#FEE266"/>
<path d="M259.9 227.119C257.219 226.625 254.746 227.844 254.372 229.847C254.004 231.854 255.88 233.877 258.562 234.385C261.246 234.88 263.727 233.647 264.095 231.642C264.466 229.638 262.587 227.614 259.9 227.119Z" fill="#FEE266"/>
<path d="M274.486 218.873C274.486 218.873 275.947 218.698 277.568 217.468C279.191 216.216 280.211 215.824 281.706 215.667C282.499 215.582 285.334 214.743 285.603 211.789C285.996 208.848 283.271 207.479 282.543 207.158C281.341 206.649 280.315 206.057 279.014 204.481C277.708 202.921 276.315 202.444 276.315 202.444C273.305 201.628 271.729 204.257 271.696 206.072C271.695 206.282 271.709 206.765 271.764 206.965C272.062 208.013 272.254 209.236 272.157 210.285C272.044 211.43 271.6 212.402 271.041 213.438C270.942 213.615 270.864 213.82 270.826 214.017C270.336 216.461 271.376 218.988 274.486 218.873Z" fill="#FEE266"/>
<path d="M289.697 220.438C287.038 219.821 285.256 217.711 285.717 215.723C286.183 213.731 288.714 212.627 291.371 213.243C294.028 213.864 295.814 215.971 295.348 217.962C294.887 219.95 292.355 221.059 289.697 220.438Z" fill="#FEE266"/>
<path d="M280.641 223.108C278.6 222.18 277.508 220.192 278.2 218.661C278.898 217.136 281.114 216.659 283.155 217.587C285.193 218.525 286.291 220.498 285.596 222.028C284.899 223.556 282.685 224.031 280.641 223.108Z" fill="#FEE266"/>
<path d="M283.18 199.685C280.99 200.14 279.497 201.852 279.845 203.494C280.193 205.13 282.257 206.083 284.452 205.607C286.64 205.149 288.135 203.44 287.789 201.799C287.434 200.158 285.375 199.21 283.18 199.685Z" fill="#FEE266"/>
<path d="M291.446 204.56C288.712 204.591 286.509 206.253 286.522 208.298C286.538 210.327 288.761 211.962 291.489 211.949C294.219 211.94 296.422 210.26 296.406 208.231C296.398 206.182 294.173 204.55 291.446 204.56Z" fill="#FEE266"/>
<path d="M309.162 244.999C309.162 244.999 310.548 244.517 311.854 242.95C313.159 241.379 314.066 240.775 315.487 240.275C316.243 240.023 318.824 238.57 318.429 235.637C318.159 232.678 315.2 231.946 314.414 231.8C313.134 231.558 312 231.214 310.382 229.969C308.758 228.741 307.298 228.576 307.298 228.576C304.181 228.455 303.234 231.372 303.602 233.148C303.641 233.359 303.764 233.823 303.86 234.02C304.386 234.952 304.843 236.11 304.976 237.161C305.133 238.294 304.912 239.346 304.596 240.479C304.542 240.673 304.507 240.893 304.515 241.087C304.58 243.581 306.156 245.817 309.162 244.999Z" fill="#FEE266"/>
<path d="M324.344 243.147C321.614 243.133 319.407 241.479 319.419 239.434C319.428 237.392 321.648 235.753 324.376 235.763C327.108 235.78 329.315 237.434 329.303 239.479C329.294 241.521 327.076 243.161 324.344 243.147Z" fill="#FEE266"/>
<path d="M316.11 247.763C313.906 247.325 312.405 245.613 312.737 243.977C313.075 242.342 315.135 241.373 317.33 241.827C319.529 242.281 321.035 243.977 320.698 245.612C320.354 247.262 318.305 248.218 316.11 247.763Z" fill="#FEE266"/>
<path d="M313.378 224.349C311.341 225.301 310.266 227.294 310.973 228.811C311.67 230.341 313.897 230.802 315.934 229.85C317.964 228.916 319.048 226.906 318.338 225.388C317.635 223.875 315.409 223.412 313.378 224.349Z" fill="#FEE266"/>
<path d="M322.515 227.29C319.853 227.924 318.078 230.033 318.547 232.012C319.009 234.003 321.538 235.11 324.198 234.489C326.858 233.856 328.633 231.747 328.17 229.756C327.702 227.78 325.172 226.673 322.515 227.29Z" fill="#FEE266"/>
<path d="M329.4 217.219C329.4 217.219 330.779 216.743 332.09 215.169C333.393 213.595 334.299 212.994 335.723 212.503C336.476 212.241 339.061 210.779 338.665 207.845C338.392 204.905 335.434 204.162 334.652 204.015C333.367 203.777 332.236 203.433 330.614 202.198C328.993 200.961 327.533 200.798 327.533 200.798C324.42 200.675 323.467 203.593 323.835 205.375C323.877 205.57 323.992 206.056 324.094 206.236C324.094 206.236 324.094 206.236 324.097 206.237C324.621 207.18 325.077 208.329 325.214 209.381C325.361 210.525 325.144 211.567 324.833 212.688C324.827 212.703 324.827 212.703 324.827 212.703C324.773 212.899 324.745 213.099 324.748 213.316C324.813 215.808 326.397 218.03 329.4 217.219Z" fill="#FEE266"/>
<path d="M344.583 215.364C341.852 215.362 339.648 213.697 339.654 211.662C339.666 209.612 341.881 207.979 344.615 207.98C347.343 207.999 349.549 209.664 349.543 211.699C349.532 213.733 347.31 215.383 344.583 215.364Z" fill="#FEE266"/>
<path d="M336.34 219.991C334.142 219.544 332.637 217.837 332.976 216.197C333.315 214.559 335.365 213.601 337.562 214.051C339.762 214.499 341.269 216.195 340.936 217.832C340.591 219.487 338.536 220.444 336.34 219.991Z" fill="#FEE266"/>
<path d="M333.621 196.562C331.59 197.499 330.508 199.501 331.216 201.019C331.916 202.547 334.139 203.004 336.176 202.066C338.214 201.109 339.287 199.121 338.585 197.591C337.876 196.079 335.658 195.607 333.621 196.562Z" fill="#FEE266"/>
<path d="M342.757 199.499C340.102 200.119 338.321 202.244 338.788 204.222C339.257 206.204 341.786 207.307 344.445 206.692C347.1 206.069 348.88 203.947 348.415 201.964C347.945 199.985 345.417 198.878 342.757 199.499Z" fill="#FEE266"/>
<path d="M366.099 238.529C366.099 238.529 367.383 237.805 368.39 236.037C369.394 234.268 370.183 233.507 371.498 232.775C372.195 232.373 374.479 230.504 373.574 227.679C372.791 224.825 369.746 224.617 368.948 224.612C367.645 224.612 366.477 224.451 364.66 223.517C362.85 222.586 361.379 222.687 361.379 222.687C358.287 223.124 357.868 226.161 358.541 227.85C358.618 228.035 358.82 228.485 358.948 228.64C359.637 229.478 360.288 230.536 360.603 231.546C360.948 232.648 360.921 233.705 360.807 234.879C360.807 234.879 360.807 234.879 360.809 234.879C360.788 235.085 360.794 235.303 360.835 235.492C361.335 237.94 363.282 239.864 366.099 238.529Z" fill="#FEE266"/>
<path d="M380.719 234.044C378.035 234.503 375.567 233.262 375.223 231.244C374.87 229.242 376.769 227.229 379.456 226.771C382.146 226.295 384.612 227.538 384.96 229.555C385.311 231.554 383.411 233.569 380.719 234.044Z" fill="#FEE266"/>
<path d="M373.426 240.035C371.183 239.975 369.403 238.56 369.445 236.885C369.488 235.213 371.344 233.908 373.586 233.964C375.83 234.021 377.615 235.424 377.566 237.111C377.52 238.781 375.668 240.091 373.426 240.035Z" fill="#FEE266"/>
<path d="M366.626 217.457C364.791 218.728 364.077 220.899 365.041 222.268C366.001 223.639 368.27 223.705 370.11 222.414C371.947 221.121 372.656 218.968 371.696 217.597C370.729 216.23 368.463 216.164 366.626 217.457Z" fill="#FEE266"/>
<path d="M376.135 218.746C373.625 219.827 372.25 222.219 373.058 224.089C373.863 225.975 376.55 226.602 379.052 225.538C381.564 224.453 382.945 222.046 382.135 220.178C381.329 218.312 378.644 217.663 376.135 218.746Z" fill="#FEE266"/>
<path d="M161.717 187.035C161.717 187.035 163.154 186.748 164.657 185.358C166.151 183.977 167.137 183.491 168.607 183.199C169.393 183.028 172.144 181.934 172.133 178.977C172.257 176.017 169.423 174.89 168.662 174.645C167.423 174.245 166.347 173.748 164.909 172.301C163.462 170.868 162.031 170.517 162.031 170.517C158.962 169.978 157.633 172.758 157.767 174.557C157.784 174.76 157.838 175.255 157.911 175.444C157.911 175.444 157.911 175.444 157.914 175.445C158.307 176.454 158.607 177.659 158.6 178.718C158.601 179.865 158.251 180.867 157.784 181.953C157.7 182.15 157.647 182.341 157.626 182.547C157.359 185.03 158.628 187.459 161.717 187.035Z" fill="#FEE266"/>
<path d="M177.013 187.203C174.307 186.831 172.34 184.892 172.614 182.872C172.892 180.857 175.311 179.519 178.014 179.892C180.721 180.264 182.688 182.203 182.409 184.221C182.135 186.241 179.715 187.579 177.013 187.203Z" fill="#FEE266"/>
<path d="M168.241 190.685C166.122 189.945 164.852 188.068 165.397 186.495C165.953 184.903 168.117 184.214 170.236 184.954C172.354 185.699 173.624 187.573 173.071 189.166C172.523 190.741 170.359 191.427 168.241 190.685Z" fill="#FEE266"/>
<path d="M168.622 167.117C166.482 167.784 165.153 169.616 165.651 171.216C166.148 172.818 168.293 173.57 170.434 172.901C172.574 172.234 173.903 170.403 173.406 168.8C172.906 167.2 170.762 166.448 168.622 167.117Z" fill="#FEE266"/>
<path d="M177.296 171.228C174.574 171.503 172.537 173.365 172.734 175.404C172.936 177.421 175.296 178.856 178.018 178.579C180.733 178.314 182.773 176.461 182.576 174.422C182.372 172.401 180.01 170.966 177.296 171.228Z" fill="#FEE266"/>
<path d="M218.955 202.353C218.955 202.353 220.4 202.633 222.318 201.936C224.232 201.24 225.327 201.181 226.805 201.472C227.586 201.616 230.546 201.675 231.686 198.94C232.943 196.265 230.759 194.132 230.156 193.612C229.172 192.756 228.374 191.877 227.595 189.995C226.826 188.105 225.645 187.229 225.645 187.229C223.012 185.555 220.717 187.599 220.139 189.322C220.074 189.508 219.94 189.974 219.933 190.185C219.903 191.27 219.718 192.497 219.309 193.465C218.864 194.523 218.147 195.321 217.304 196.131C217.298 196.146 217.298 196.146 217.298 196.146C217.153 196.286 217.021 196.451 216.921 196.625C215.724 198.81 215.952 201.534 218.955 202.353Z" fill="#FEE266"/>
<path d="M232.993 208.423C230.645 207.03 229.577 204.484 230.617 202.728C231.649 200.975 234.399 200.678 236.744 202.067C239.095 203.455 240.162 206 239.128 207.758C238.088 209.514 235.344 209.811 232.993 208.423Z" fill="#FEE266"/>
<path d="M223.558 208.238C221.892 206.731 221.447 204.505 222.569 203.263C223.687 202.014 225.946 202.224 227.617 203.719C229.281 205.229 229.726 207.452 228.606 208.698C227.485 209.946 225.23 209.733 223.558 208.238Z" fill="#FEE266"/>
<path d="M233.032 186.639C230.8 186.424 228.861 187.608 228.703 189.272C228.542 190.952 230.224 192.473 232.456 192.689C234.695 192.892 236.63 191.718 236.791 190.038C236.949 188.374 235.266 186.855 233.032 186.639Z" fill="#FEE266"/>
<path d="M239.434 193.796C236.825 192.987 234.225 193.924 233.624 195.866C233.025 197.803 234.652 200.047 237.262 200.845C239.868 201.661 242.476 200.719 243.073 198.781C243.673 196.824 242.046 194.597 239.434 193.796Z" fill="#FEE266"/>
<path d="M382.111 207.199C382.111 207.199 383.505 206.717 384.82 205.179C386.139 203.625 387.059 203.024 388.487 202.537C389.244 202.288 391.843 200.859 391.475 197.927C391.238 194.972 388.287 194.197 387.502 194.054C386.223 193.802 385.097 193.443 383.49 192.185C381.881 190.929 380.42 190.755 380.42 190.755C377.308 190.604 376.325 193.51 376.676 195.284C376.71 195.495 376.828 195.971 376.926 196.147C376.929 196.148 376.929 196.148 376.929 196.148C377.44 197.098 377.891 198.25 378.011 199.305C378.146 200.456 377.92 201.491 377.594 202.621C377.535 202.815 377.499 203.035 377.505 203.237C377.548 205.72 379.099 207.97 382.111 207.199Z" fill="#FEE266"/>
<path d="M397.307 205.512C394.58 205.468 392.393 203.781 392.427 201.739C392.452 199.708 394.697 198.078 397.424 198.122C400.152 198.166 402.339 199.853 402.309 201.896C402.279 203.926 400.045 205.542 397.307 205.512Z" fill="#FEE266"/>
<path d="M389.03 210.026C386.84 209.548 385.351 207.829 385.706 206.201C386.059 204.569 388.125 203.616 390.319 204.096C392.508 204.575 393.997 206.29 393.643 207.922C393.288 209.556 391.219 210.505 389.03 210.026Z" fill="#FEE266"/>
<path d="M386.549 186.58C384.502 187.514 383.404 189.501 384.097 191.019C384.782 192.556 386.997 193.044 389.049 192.111C391.089 191.195 392.188 189.207 391.501 187.672C390.809 186.155 388.592 185.666 386.549 186.58Z" fill="#FEE266"/>
<path d="M395.655 189.622C392.991 190.222 391.193 192.314 391.636 194.304C392.078 196.296 394.602 197.414 397.264 196.837C399.926 196.242 401.729 194.134 401.287 192.143C400.842 190.152 398.322 189.029 395.655 189.622Z" fill="#FEE266"/>
<path d="M420.716 226.721C420.716 226.721 421.87 225.809 422.597 223.896C423.313 221.999 423.977 221.127 425.164 220.196C425.794 219.702 427.764 217.49 426.436 214.84C425.221 212.147 422.186 212.4 421.393 212.528C420.105 212.718 418.92 212.753 416.983 212.114C415.054 211.461 413.619 211.783 413.619 211.783C410.63 212.685 410.679 215.764 411.609 217.312C411.707 217.493 411.983 217.899 412.129 218.043L412.134 218.045C412.935 218.771 413.741 219.716 414.209 220.658C414.72 221.694 414.855 222.753 414.928 223.913C414.938 224.133 414.98 224.33 415.045 224.533C415.921 226.855 418.138 228.462 420.716 226.721Z" fill="#FEE266"/>
<path d="M434.473 220.041C431.888 220.915 429.257 220.058 428.608 218.127C427.952 216.19 429.52 213.917 432.104 213.046C434.689 212.173 437.317 213.022 437.971 214.958C438.622 216.893 437.056 219.167 434.473 220.041Z" fill="#FEE266"/>
<path d="M428.184 227.069C425.956 227.364 423.983 226.248 423.77 224.588C423.553 222.927 425.184 221.35 427.414 221.052C429.636 220.774 431.612 221.895 431.827 223.553C432.041 225.211 430.413 226.788 428.184 227.069Z" fill="#FEE266"/>
<path d="M417.996 205.805C416.378 207.362 416.007 209.608 417.17 210.812C418.334 212.015 420.581 211.738 422.199 210.183C423.816 208.627 424.181 206.399 423.023 205.18C421.865 203.976 419.612 204.254 417.996 205.805Z" fill="#FEE266"/>
<path d="M427.591 205.628C425.279 207.074 424.286 209.658 425.375 211.375C426.456 213.109 429.211 213.325 431.523 211.877C433.83 210.426 434.824 207.848 433.745 206.112C432.656 204.395 429.901 204.179 427.591 205.628Z" fill="#FEE266"/>
<path d="M433.371 192.493C433.371 192.493 434.349 191.408 434.735 189.402C435.122 187.406 435.632 186.427 436.637 185.318C437.174 184.73 438.741 182.202 436.981 179.824C435.321 177.374 432.372 178.151 431.613 178.405C430.381 178.81 429.218 179.038 427.205 178.738C425.187 178.439 423.83 178.997 423.83 178.997C421.033 180.399 421.605 183.42 422.791 184.78C422.919 184.941 423.259 185.302 423.43 185.419C424.347 185.991 425.302 186.779 425.928 187.632C426.603 188.568 426.918 189.58 427.183 190.736C427.232 190.936 427.308 191.126 427.404 191.312C428.666 193.451 431.124 194.662 433.371 192.493Z" fill="#FEE266"/>
<path d="M445.781 183.575C443.391 184.872 440.654 184.475 439.68 182.692C438.71 180.891 439.86 178.39 442.257 177.089C444.661 175.78 447.392 176.178 448.369 177.961C449.342 179.761 448.183 182.264 445.781 183.575Z" fill="#FEE266"/>
<path d="M440.785 191.592C438.643 192.243 436.499 191.492 436.007 189.894C435.513 188.29 436.854 186.451 438.995 185.796C441.143 185.13 443.28 185.89 443.773 187.494C444.264 189.097 442.926 190.937 440.785 191.592Z" fill="#FEE266"/>
<path d="M427.128 172.356C425.796 174.172 425.811 176.443 427.163 177.434C428.515 178.419 430.688 177.756 432.013 175.957C433.344 174.143 433.327 171.869 431.979 170.882C430.624 169.89 428.451 170.556 427.128 172.356Z" fill="#FEE266"/>
<path d="M436.548 170.549C434.522 172.367 433.979 175.082 435.337 176.607C436.701 178.111 439.459 177.859 441.482 176.037C443.513 174.215 444.054 171.505 442.693 169.979C441.331 168.472 438.577 168.726 436.548 170.549Z" fill="#FEE266"/>
<path d="M473.416 202.466C473.416 202.466 474.176 201.208 474.183 199.164C474.187 197.12 474.502 196.083 475.28 194.797C475.7 194.112 476.763 191.343 474.585 189.338C472.497 187.238 469.751 188.55 469.058 188.936C467.912 189.577 466.815 190.032 464.778 190.107C462.746 190.185 461.514 190.993 461.514 190.993C459.038 192.88 460.163 195.74 461.58 196.882C461.735 197.01 462.134 197.302 462.325 197.372L462.33 197.374C463.338 197.766 464.423 198.363 465.198 199.088C466.037 199.868 466.534 200.816 467.015 201.889C467.098 202.081 467.206 202.252 467.341 202.41C468.977 204.29 471.62 205.006 473.416 202.466Z" fill="#FEE266"/>
<path d="M483.947 191.354C481.831 193.088 479.074 193.212 477.785 191.621C476.489 190.048 477.151 187.382 479.265 185.645C481.375 183.909 484.135 183.785 485.43 185.361C486.723 186.934 486.059 189.621 483.947 191.354Z" fill="#FEE266"/>
<mask id="mask0_388_4117" style="mask-type:luminance" maskUnits="userSpaceOnUse" x="473" y="192" width="12" height="11">
<path d="M476.656 192.212L484.294 195.013L481.469 202.719L473.831 199.918L476.656 192.212Z" fill="white"/>
</mask>
<g mask="url(#mask0_388_4117)">
<path d="M480.531 200.169C478.551 201.216 476.302 200.884 475.522 199.394C474.735 197.919 475.707 195.865 477.692 194.806C479.672 193.759 481.914 194.109 482.7 195.581C483.482 197.074 482.51 199.128 480.531 200.169Z" fill="#FEE266"/>
</g>
<path d="M463.511 183.846C462.544 185.87 462.987 188.099 464.501 188.822C466.013 189.541 468.023 188.483 468.987 186.457C469.952 184.432 469.508 182.204 467.996 181.484C466.481 180.766 464.477 181.824 463.511 183.846Z" fill="#FEE266"/>
<path d="M472.427 180.289C470.772 182.474 470.75 185.234 472.372 186.469C473.999 187.689 476.653 186.94 478.304 184.757C479.951 182.592 479.973 179.832 478.352 178.597C476.729 177.356 474.072 178.123 472.427 180.289Z" fill="#FEE266"/>
<path d="M470.261 164.729C470.261 164.729 471.335 163.717 471.887 161.76C472.44 159.794 473.031 158.864 474.127 157.84C474.708 157.296 476.481 154.913 474.924 152.398C473.475 149.815 470.474 150.34 469.704 150.524C468.429 150.834 467.256 150.975 465.271 150.506C463.283 150.037 461.89 150.468 461.89 150.468C458.993 151.625 459.305 154.685 460.366 156.161C460.488 156.319 460.791 156.709 460.951 156.839C460.956 156.841 460.956 156.841 460.956 156.841C461.819 157.493 462.704 158.353 463.255 159.257C463.855 160.235 464.083 161.283 464.255 162.436C464.248 162.453 464.248 162.453 464.248 162.453C464.284 162.651 464.337 162.856 464.431 163.035C465.503 165.28 467.849 166.696 470.261 164.729Z" fill="#FEE266"/>
<path d="M483.39 156.86C480.886 157.962 478.195 157.345 477.378 155.469C476.553 153.613 477.918 151.202 480.42 150.099C482.912 149.013 485.608 149.631 486.429 151.489C487.245 153.362 485.883 155.773 483.39 156.86Z" fill="#FEE266"/>
<path d="M477.738 164.431C475.551 164.901 473.483 163.961 473.124 162.333C472.768 160.688 474.254 158.979 476.445 158.491C478.634 158.022 480.7 158.961 481.059 160.59C481.417 162.235 479.934 163.945 477.738 164.431Z" fill="#FEE266"/>
<path d="M465.728 144.129C464.259 145.816 464.078 148.086 465.345 149.179C466.605 150.29 468.828 149.808 470.303 148.123C471.776 146.424 471.947 144.164 470.691 143.058C469.427 141.96 467.202 142.447 465.728 144.129Z" fill="#FEE266"/>
<path d="M475.274 143.108C473.097 144.762 472.333 147.413 473.563 149.031C474.792 150.671 477.553 150.645 479.735 148.994C481.91 147.339 482.674 144.688 481.442 143.064C480.209 141.445 477.448 141.455 475.274 143.108Z" fill="#FEE266"/>
</svg>
